<?xml version="1.0" encoding="utf-8"?>
<!-- Designed by Vexels.com - 2017 All Rights Reserved - https://vexels.com/terms-and-conditions/  -->

<svg version="1.1" id="Layer_1" xmlns="http://www.w3.org/2000/svg" xmlns:xlink="http://www.w3.org/1999/xlink" x="0px" y="0px"
	 width="1200px" height="1200px" viewBox="0 0 1200 1200" enable-background="new 0 0 1200 1200" xml:space="preserve">
<g>
	<path fill-rule="evenodd" clip-rule="evenodd" fill="#5F4134" d="M729,230.426c-174.238-71.898-314.948-58.79-440.125-15.641
		c-75.205,36.433-142.611,95.33-187.64,198.065C58.323,494.692,56.078,568.06,70.14,630.186
		c9.636,42.574,28.649,81.218,52.935,117.299c27.608,31.999,49.276,67.478,81.175,97.468
		c44.454,41.821,105.252,73.985,166.862,107.907c0.488-1.184,1.04-3.874,4.082-5.094c-4.348,4.068-2.511,6.536-0.287,7.713
		c88.794,46.8,183.077,66.553,262.623,73.727c67.721,6.099,133.693,8.172,193.594-1.909c42.446-7.146,83.464-18.008,121.719-34.359
		c55.64-23.77,105.54-60.698,143.264-124.804c36.06-38.457,61.286-112.872,51.931-159.293c-5.108-25.492-39.92-48.07-69.552-41.577
		c-20.513,0.452-41.542,3.285-63.489,1.14c-27.228-11.214-30.615-36.304-26.288-61.114c7.39-42.166,14.406-81.534,18.389-121.74
		c2.934-29.632,4.262-58.783-9.528-81.362c-16.882-27.665-51.45-48.056-77.25-70.778C872.343,291.139,802.376,260.703,729,230.426z"
		/>
	<path fill-rule="evenodd" clip-rule="evenodd" fill="#DBB486" d="M714.794,220.711c-141.363-62.613-264.13-64.335-371.843-41.921
		c-99.815,20.749-184.864,78.347-243.89,191.844c-11.81,22.729-24.818,48.573-33.427,75.169
		C47.87,500.647,46.529,549.528,55.188,594.111c9.643,49.771,34.568,93.429,64.041,134.547
		c38.392,53.581,89.849,101.709,152.082,143.896c48.307,24.157,90.631,51.242,143.76,73.448
		c62.986,26.317,120.621,39.009,175.414,45.208l-8.186-3.279c23.827,5.905,48.106,10.117,72.034,11.939
		c92.023,7.024,177.1-2.54,253.453-31.238c50.008-18.798,97.906-45.495,133.722-94.269c20.197-27.551,39.36-50.488,56.257-82.559
		c21.202-40.3,24.573-83.449,13.653-114.041c-7.397-20.699-38.614-26.195-58.718-24.495c-21.323,1.793-41.821,3.889-63.962,2.339
		c-32.422-11.538-36.147-38.449-35.917-64.415c6.888-48.688,24.86-102.563,24.222-147.648c4.226-39.109-10.848-70.936-44.369-94.412
		c-36.864-25.771-70.211-53.035-112.958-76.453c-31.899-17.442-66.438-34.891-102.203-50.962
		C716.982,221.486,715.311,220.948,714.794,220.711z"/>
	<path fill-rule="evenodd" clip-rule="evenodd" fill="#EA7734" d="M290.59,447.238c-10.375-8.021-22.155-5.094-30.715-7.124
		c-32.293-7.627-55.123,8.33-78.089,23.755c-23.124,15.519-45.25,56.156-40.881,87.969c10.367,36.024,37.968,66.56,86.57,82.789
		c44.497,14.902,77.343-3.637,101.644-36.971c32.66-59.536,12.986-114.86-33.039-146.608
		C294.235,449.785,292.355,448.608,290.59,447.238z"/>
	<path fill-rule="evenodd" clip-rule="evenodd" fill="#B93736" d="M394.551,244.675c-10.841-4.261-22.062-6.185-31.368-3.264
		c-45.897-9.707-80.335,15.741-100.03,62.298c-12.914,44.375,2.942,77.092,40.946,98.674c38.693,21.976,79.897,21.344,104.571-0.173
		c33.132-28.9,43.464-92.145,23.956-121.626c-8.301-12.57-20.742-24.057-35.056-33.642
		C396.962,246.526,395.219,244.947,394.551,244.675z"/>
	<path fill-rule="evenodd" clip-rule="evenodd" fill="#2F874A" d="M436.817,685.158c-22.873-8.818-54.155-18.783-72.866-9.98
		c-19.028,8.968-39.268,17.435-51.565,40.545c-24.2,45.466-5.288,79.294,27.013,101.995c43.472,30.514,96.6,23.554,122.084-11.315
		c30.084-41.146,22.027-87.086-9.226-110.389C447.235,692.29,442.665,687.418,436.817,685.158z"/>
	<path fill-rule="evenodd" clip-rule="evenodd" fill="#423867" d="M704.577,790.77c-45.006-17.176-83.255-7.347-104.147,30.026
		c-20.427,36.519-5.144,66.682,18.023,86.499c32.049,27.414,80.105,30.822,108.367,17.915c25.549-11.687,33.57-56.601,26.532-79.402
		c-6.73-21.711-23.124-40.637-48.623-54.829C705.252,791.258,703.961,790.533,704.577,790.77z"/>
	<path fill-rule="evenodd" clip-rule="evenodd" fill="#942E31" d="M631.317,253.608c-13.051-7.727-23.447-2.591-35.522-3.997
		c-33.972-3.925-63.353,12.434-74.617,56.831c-8.882,34.991,11.243,61.394,48.243,77.665c39.36,17.27,68.152,4.018,88.765-22.335
		c23.698-41.555,11.178-80.371-18.927-103.402C636.812,256.491,633.928,255.171,631.317,253.608z"/>
	<path fill-rule="evenodd" clip-rule="evenodd" fill="#5F4134" d="M843.4,388.613c-42.259-17.176-75.771-6.557-97.324,24.574
		c-11.953,39.188,3.257,69.3,39.145,86.06c37.997,17.736,74.768,15.39,101.242-0.717c25.657-22.665,16.99-59.751,1.406-78.729
		c-10.059-12.269-25.434-22.786-44.161-30.808C843.286,388.815,843.099,388.506,843.4,388.613z"/>
	<path fill-rule="evenodd" clip-rule="evenodd" fill="#72367D" d="M929.726,791.107c-45.875-18.253-82.688-3.616-103.646,37.23
		c-9.685,36.648,5.374,63.618,40.423,80.055c40.25,13.416,75.377,6.084,93.766-31.784c12.455-35.83,1.105-64.005-27.2-82.201
		C932.288,793.912,930.523,791.452,929.726,791.107z"/>
	<path fill-rule="evenodd" clip-rule="evenodd" fill="#423867" d="M837.123,395.387c-3.014-1.937-5.833-0.524-7.398-1.076
		c-31.325-11.056-55.733-0.846-72.686,17.563c-12.52,33.011-3.308,59.378,23.497,75.17c32.81,19.3,68.97,19.056,93.716,8.035
		c15.834-7.052,24.064-35.034,17.47-50.072c-8.919-20.427-26.539-38.872-54.033-49.14
		C837.496,395.788,837.274,395.487,837.123,395.387z"/>
	<path fill-rule="evenodd" clip-rule="evenodd" fill="#3B3337" d="M568.272,985.018c0.983-3.408-6.135-1.894-8.035-4.513
		C559.533,981.804,565.84,983.532,568.272,985.018z"/>
	<path fill-rule="evenodd" clip-rule="evenodd" fill="#3B3337" d="M745.28,983.654c-1.32-1.27-0.417,3.214,0.753,4.247
		C746.822,986.79,746.543,984.91,745.28,983.654z"/>
</g>
</svg>
